<?xml version="1.0" encoding="UTF-8"?>
<!-- Created with Inkscape (http://www.inkscape.org/) -->
<svg width="80mm" height="50.449mm" version="1.1" viewBox="0 0 80 50.449" xml:space="preserve" xmlns="http://www.w3.org/2000/svg"><rect width="80" height="50.449" ry="2.8356" fill="#e6f6f5" stroke-width=".82043"/><path d="m65.804 24.061c-1.107 1.1136-2.205 1.2502-10.236 1.274-6.7928 0.0202-7.9462-0.0643-11.048-0.80928-2.9907-0.71836-4.001-0.80239-7.4102-0.61636-2.1937 0.11974-4.8868 0.50183-6.0621 0.86001-1.7835 0.54365-3.423 0.64848-10.468 0.66936-7.935 0.0236-8.4027-0.0122-9.3508-0.7133-1.5108-1.1175-2.9286-3.8973-0.50973-4.1473 4.383-0.45304 8.8999-3.1471 13.678-4.1642 2.8293-0.60226 5.0059-0.49441 8.619 0.42698 3.0017 0.76548 6.5376-4.7963 11.299-5.7578 3.9774-0.80322 4.2395-0.81439 6.9191-0.29474 8.7194 1.691 17.83 9.9914 14.568 13.273zm-3.3055-5.8107c-2.7456-2.6337-6.6346-4.9104-10.12-5.9242-2.5567-0.74375-5.6253-0.68537-8.8432 0.16821-3.4188 0.90693-7.7126 6.4054-11.068 5.5236-4.7826-1.2566-8.2326-0.81301-13.175 1.6944-5.255 2.6659-8.6455 1.1149-7.993 3.15 0.34931 1.0894 2.7601 1.4716 9.3398 1.4807 5.4175 8e-3 6.7461-0.11131 10.847-0.97026 5.7722-1.2088 8.0569-1.2294 13.703-0.12345 2.4397 0.47791 5.9707 0.96223 7.8468 1.0763 3.7808 0.22978 10.829-0.37913 11.572-0.99978 0.26243-0.21916 0.47573-0.89372 0.47395-1.4991-3e-3 -0.9048-0.46252-1.5411-2.5843-3.5765zm-4.5296 2.5822c-0.60527 0.60885-1.8991 0.55425-2.5656-0.10827-1.1757-1.1687-0.28256-2.3856 1.6209-2.2086 0.94932 0.0883 1.1899 0.2755 1.2759 0.9929 0.0584 0.48625-0.0908 1.082-0.33123 1.3239zm-1.1833-1.3219c-0.29103 1e-3 -0.5287 0.16033-0.52811 0.35437 2e-4 0.19403 0.23917 0.35206 0.53024 0.35117 0.29102-1e-3 0.5287-0.16033 0.52812-0.35436-2.1e-4 -0.19404-0.23917-0.35208-0.5302-0.35125zm-4.5817 1.4889c-1.7182 0.78902-3.4652-0.85992-2.2287-2.1037 0.23214-0.2335 0.83481-0.42581 1.3393-0.4273 1.8051-5e-3 2.4454 1.8165 0.88946 2.531zm-0.68911-1.4733c-0.27957 1e-3 -0.60599 0.16057-0.72532 0.35495-0.11933 0.1944 0.10987 0.35246 0.50939 0.35125 0.39949-2e-3 0.72589-0.16094 0.72533-0.35493-2.1e-4 -0.19404-0.22981-0.3521-0.50941-0.35126z"/><text x="39.917027" y="38.324177" fill="#000000" font-family="'Zilla Slab Medium'" font-size="14.111px" font-weight="500" stroke-linecap="round" stroke-width=".243" text-align="center" text-anchor="middle" style="line-height:1.6" xml:space="preserve"><tspan x="39.917027" y="38.324177" fill="#000000" stroke-width=".243">Pattr</tspan></text></svg>
